#usda 1.0
(
    customLayerData = {
        int64 absoluteTimeOffsetMicroSec = 27563309000
    }
    defaultPrim = "World"
    endTimeCode = 480
    metersPerUnit = 1
    startTimeCode = 0
    upAxis = "Z"
)

def Xform "World"
{
    def Xform "sensor_rig_0"
    {
        matrix4d xformOp:transform.timeSamples = {
            0: ( (1, 0, 0, 0), (0, 1, 0, 0), (0, 0, 1, 0), (0, 0, 0, 1) ),
            2.186784: ( (0.9999998211860657, 0.0000800434427219443, 0.0005774106830358505, 0), (-0.00008102162973955274, 0.9999985694885254, 0.0016942658694460988, 0), (-0.0005772742442786694, -0.0016943123191595078, 0.9999983906745911, 0), (1.8729490041732788, -0.0022490136325359344, 0.010398952290415764, 1) ),
            4.586664: ( (0.9999998211860657, 0.000184812699444592, 0.0006026811897754669, 0), (-0.0001866869570221752, 0.9999951720237732, 0.003111303085461259, 0), (-0.0006021032459102571, -0.0031114148441702127, 0.9999949932098389, 0), (3.9043326377868652, -0.00421943049877882, 0.02094658464193344, 1) ),
            6.9865200000000005: ( (0.9999995231628418, 0.0005157755222171545, 0.0008462058613076806, 0), (-0.000519127759616822, 0.9999920129776001, 0.00396601902320981, 0), (-0.0008441535173915327, -0.003966456279158592, 0.999991774559021, 0), (5.941570281982422, -0.00638864329084754, 0.027997009456157684, 1) ),
            9.385728: ( (0.9999994039535522, 0.000998331350274384, 0.00040796896792016923, 0), (-0.0009999979520216584, 0.9999910593032837, 0.004105548840016127, 0), (-0.00040386663749814034, -0.004105954430997372, 0.9999914765357971, 0), (7.9706807136535645, -0.008276867680251598, 0.034617528319358826, 1) ),
            11.785584: ( (0.9999991655349731, 0.0013060646597296, 0.000001842246092564892, 0), (-0.0013060608180239797, 0.9999902248382568, 0.00422259047627449, 0), (0.000003672748334793141, -0.004222589544951916, 0.9999910593032837, 0), (10.011481285095215, -0.009851628914475441, 0.038718581199645996, 1) ),
            14.185464: ( (0.9999986886978149, 0.0016027361853048205, -0.00018915475811809301, 0), (-0.0016019572503864765, 0.9999905228614807, 0.004048493225127459, 0), (0.00019564163812901825, -0.004048184957355261, 0.999991774559021, 0), (12.025312423706055, -0.010504848323762417, 0.0422644317150116, 1) ),
            16.584648: ( (0.999998152256012, 0.0018422615248709917, -0.000573172583244741, 0), (-0.0018400460248813033, 0.9999909400939941, 0.0038420679047703743, 0), (0.0005802454543299973, -0.0038410061970353127, 0.9999924302101135, 0), (14.066038131713867, -0.010215113870799541, 0.045821815729141235, 1) ),
            18.984504: ( (0.9999974966049194, 0.0019627362489700317, -0.001066425465978682, 0), (-0.0019595071207731962, 0.9999935030937195, 0.003020542673766613, 0), (0.001072347047738731, -0.0030184455681592226, 0.9999948740005493, 0), (16.079931259155273, -0.009939317591488361, 0.04903881251811981, 1) ),
            21.385056000000002: ( (0.9999966621398926, 0.0021045433823019266, -0.0014890922466292977, 0), (-0.0021026451140642166, 0.9999969601631165, 0.001275303540751338, 0), (0.0014917717780917883, -0.0012721683597192168, 0.9999980926513672, 0), (18.102140426635742, -0.009630721993744373, 0.05276550352573395, 1) ),
            23.784912000000002: ( (0.999993085861206, 0.0023460732772946358, -0.0028894313145428896, 0), (-0.0023518004454672337, 0.9999952912330627, -0.0019803268369287252, 0), (0.0028847716748714447, 0.0019871084950864315, 0.9999938607215881, 0), (20.121458053588867, -0.009468057192862034, 0.054502058774232864, 1) ),
            26.18544: ( (0.9999839663505554, 0.002606051741167903, -0.005027684848755598, 0), (-0.0026368459220975637, 0.9999777674674988, -0.006128035020083189, 0), (0.005011602770537138, 0.006141193676739931, 0.9999685883522034, 0), (22.14562225341797, -0.008581733331084251, 0.05561710521578789, 1) ),
            28.585968: ( (0.9999933242797852, 0.0024378823582082987, -0.0027152469847351313, 0), (-0.002456343499943614, 0.9999737739562988, -0.0068165515549480915, 0), (0.002698557684198022, 0.006823176052421331, 0.9999730587005615, 0), (24.17168426513672, -0.0037626870907843113, 0.0487581267952919, 1) ),
            30.985824: ( (0.9999967813491821, 0.002370009198784828, 0.0009047359926626086, 0), (-0.002364089246839285, 0.9999761581420898, -0.00648924196138978, 0), (-0.0009200939675793052, 0.006487082224339247, 0.9999785423278809, 0), (26.188806533813477, 0.0003929223748855293, 0.042925164103507996, 1) ),
            33.38568: ( (0.9999966025352478, 0.0025926860980689526, 0.0003400260757189244, 0), (-0.0025901678018271923, 0.9999706745147705, -0.007208249531686306, 0), (-0.0003587048267945647, 0.00720734428614378, 0.9999739527702332, 0), (28.200119018554688, 0.0018729206640273333, 0.04734504595398903, 1) ),
            35.785560000000004: ( (0.9999952912330627, 0.002431275323033333, -0.0018739064689725637, 0), (-0.0024482968728989363, 0.9999552965164185, -0.009135247208178043, 0), (0.0018516123527660966, 0.009139792062342167, 0.999956488609314, 0), (30.210508346557617, 0.0035420202184468508, 0.05369429290294647, 1) ),
            38.185416000000004: ( (0.9999973773956299, 0.0014551276108250022, -0.00178154231980443, 0), (-0.0014724746579304338, 0.9999511241912842, -0.009774845093488693, 0), (0.0017672316171228886, 0.009777442552149296, 0.999950647354126, 0), (32.215030670166016, 0.007408163510262966, 0.0557762011885643, 1) ),
            40.585944: ( (0.9999993443489075, -0.00006592635327251628, 0.0011399317299947143, 0), (0.00007449682016158476, 0.9999717473983765, -0.007519994862377644, 0), (-0.0011394036700949073, 0.0075200749561190605, 0.9999710917472839, 0), (34.23646926879883, 0.011633452028036118, 0.05605015903711319, 1) ),
            42.9858: ( (0.9999938011169434, -0.0013803027104586363, 0.003242031205445528, 0), (0.0013956103939563036, 0.9999878406524658, -0.004724124446511269, 0), (-0.0032354712020605803, 0.0047286199405789375, 0.9999836087226868, 0), (36.25698471069336, 0.011321301572024822, 0.06284716725349426, 1) ),
            45.385656000000004: ( (0.9999926686286926, -0.0025833959225565195, 0.002827563788741827, 0), (0.0025894958525896072, 0.9999943375587463, -0.0021557766012847424, 0), (-0.002821978647261858, 0.002163082826882601, 0.9999936819076538, 0), (38.23915481567383, 0.007007811218500137, 0.07600276172161102, 1) ),
            47.785536: ( (0.9999909996986389, -0.003933113068342209, 0.001603750279173255, 0), (0.003933610860258341, 0.9999921917915344, -0.0003073078114539385, 0), (-0.0016025290824472904, 0.00031361356377601624, 0.9999986886978149, 0), (40.247039794921875, 0.0008806356927379966, 0.0888194665312767, 1) ),
            50.185392: ( (0.9999868869781494, -0.005120355635881424, -0.00011261225154157728, 0), (0.005120372399687767, 0.9999868869781494, 0.0001513862080173567, 0), (0.00011183562310179695, -0.00015196083404589444, 1, 0), (42.24776840209961, -0.00859468337148428, 0.09832796454429626, 1) ),
            52.584576: ( (0.9999787211418152, -0.006223135162144899, -0.0019462871132418513, 0), (0.006221864838153124, 0.9999804496765137, -0.0006581404013559222, 0), (0.0019503446528688073, 0.0006460169097408652, 0.9999979138374329, 0), (44.24106216430664, -0.02060336247086525, 0.10531096905469894, 1) ),
            54.984456: ( (0.9999675750732422, -0.007334032095968723, -0.003330785082653165, 0), (0.0073272003792226315, 0.9999710321426392, -0.002058659913018346, 0), (0.003345786826685071, 0.0020341877825558186, 0.999992311000824, 0), (46.21934127807617, -0.03558018431067467, 0.10819238424301147, 1) ),
            57.384312: ( (0.9999565482139587, -0.008468715474009514, -0.003902560332790017, 0), (0.008458338677883148, 0.9999606609344482, -0.0026677704881876707, 0), (0.003924999386072159, 0.0026346452068537474, 0.999988853931427, 0), (48.20925521850586, -0.05180167779326439, 0.10782557725906372, 1) ),
            59.78484: ( (0.9999484419822693, -0.009509083814918995, -0.003565187333151698, 0), (0.009498325176537037, 0.9999503493309021, -0.0030225857626646757, 0), (0.003593752160668373, 0.002988566644489765, 0.9999890923500061, 0), (50.18988037109375, -0.06990690529346466, 0.10609506070613861, 1) ),
            62.185368000000004: ( (0.9999426007270813, -0.010299076326191425, -0.0029487803112715483, 0), (0.010288888588547707, 0.9999411106109619, -0.003449393669143319, 0), (0.0029841323848813772, 0.003418856067582965, 0.9999896883964539, 0), (52.14719772338867, -0.08974451571702957, 0.10545326769351959, 1) ),
            64.585896: ( (0.9999386668205261, -0.010675010271370411, -0.002960028126835823, 0), (0.010661792010068893, 0.9999333024024963, -0.004445807542651892, 0), (0.003007289720699191, 0.004413975868374109, 0.9999857544898987, 0), (54.14625930786133, -0.1123042106628418, 0.10741718858480453, 1) ),
            66.985728: ( (0.9999365210533142, -0.010741781443357468, -0.00339977047406137, 0), (0.01072138175368309, 0.9999247193336487, -0.005962686147540808, 0), (0.0034635644406080246, 0.005925857461988926, 0.9999764561653137, 0), (56.11552429199219, -0.13560999929904938, 0.11072102934122086, 1) ),
            69.386208: ( (0.9999381899833679, -0.010666298680007458, -0.0031450956594198942, 0), (0.01064218021929264, 0.9999145865440369, -0.007587858941406012, 0), (0.0032257612328976393, 0.007553919218480587, 0.9999662637710571, 0), (58.08226013183594, -0.15849466621875763, 0.11175093799829483, 1) ),
            71.78604: ( (0.9999434351921082, -0.010442637838423252, -0.0020313775166869164, 0), (0.010425202548503876, 0.999910295009613, -0.008412168361246586, 0), (0.002119040582329035, 0.008390514180064201, 0.999962568283081, 0), (60.04434585571289, -0.1805436760187149, 0.11250775307416916, 1) ),
            74.186544: ( (0.999947726726532, -0.010223936289548874, 0.00008638047438580543, 0), (0.010224301367998123, 0.9999147057533264, -0.008125588297843933, 0), (-0.0000032976097372738877, 0.008126046508550644, 0.9999669790267944, 0), (62.00147247314453, -0.20150314271450043, 0.11475801467895508, 1) ),
            76.587024: ( (0.9999464750289917, -0.010077455081045628, 0.002352942945435643, 0), (0.01009605173021555, 0.9999167919158936, -0.008030164055526257, 0), (-0.0022718235850334167, 0.008053489029407501, 0.9999650120735168, 0), (63.95854949951172, -0.22370018064975739, 0.12107998132705688, 1) ),
            78.98755200000001: ( (0.9999468922615051, -0.009827794507145882, 0.0030980317387729883, 0), (0.009854820556938648, 0.999912440776825, -0.008832533843815327, 0), (-0.0030109561048448086, 0.008862595073878765, 0.9999561905860901, 0), (65.90204620361328, -0.24619679152965546, 0.13322658836841583, 1) ),
            81.388104: ( (0.9999500513076782, -0.009590553119778633, 0.002814767649397254, 0), (0.009619086980819702, 0.9999006390571594, -0.010304905474185944, 0), (-0.002715658163651824, 0.010331465862691402, 0.99994295835495, 0), (67.84343719482422, -0.2679910361766815, 0.14903408288955688, 1) ),
            83.788632: ( (0.9999527931213379, -0.009444852359592915, 0.002292040502652526, 0), (0.009470856748521328, 0.9998877048492432, -0.01161313895136118, 0), (-0.0021820988040417433, 0.011634297668933868, 0.9999299645423889, 0), (69.77619171142578, -0.2871399521827698, 0.1634310632944107, 1) ),
            86.188488: ( (0.9999549984931946, -0.009225897490978241, 0.0022059001494199038, 0), (0.009253252297639847, 0.9998761415481567, -0.012729940004646778, 0), (-0.002088181907311082, 0.012749779038131237, 0.9999165534973145, 0), (71.70045471191406, -0.30575066804885864, 0.17726631462574005, 1) ),
            88.588344: ( (0.9999558925628662, -0.008962107822299004, 0.002807117300108075, 0), (0.008999153971672058, 0.9998686909675598, -0.013474799692630768, 0), (-0.002685985993593931, 0.013499467633664608, 0.9999052882194519, 0), (73.63224792480469, -0.32396283745765686, 0.18955853581428528, 1) ),
            90.988224: ( (0.9999521970748901, -0.008923628367483616, 0.0040002865716814995, 0), (0.00897245854139328, 0.9998833537101746, -0.0123596815392375, 0), (-0.003889526706188917, 0.012394983321428299, 0.999915599822998, 0), (75.54183197021484, -0.3406897187232971, 0.203884094953537, 1) ),
            93.388104: ( (0.9999472498893738, -0.008855907246470451, 0.005198624916374683, 0), (0.008913317695260048, 0.999898374080658, -0.011125994846224785, 0), (-0.00509956618770957, 0.011171745136380196, 0.9999246001243591, 0), (77.46146392822266, -0.35786721110343933, 0.22013996541500092, 1) ),
            95.78796: ( (0.9999523162841797, -0.008569168858230114, 0.004685967229306698, 0), (0.008620647713541985, 0.9999014735221863, -0.01107820775359869, 0), (-0.004590574186295271, 0.01111807581037283, 0.9999276399612427, 0), (79.35942840576172, -0.37623724341392517, 0.2402472198009491, 1) ),
            98.187168: ( (0.9999594688415527, -0.008487649261951447, 0.002996349474415183, 0), (0.008523160591721535, 0.9998911619186401, -0.012044653296470642, 0), (-0.0028937924653291702, 0.01206970401108265, 0.9999229907989502, 0), (81.24571228027344, -0.39513683319091797, 0.26006725430488586, 1) ),
            100.587024: ( (0.9999610185623169, -0.00860687904059887, 0.001978441374376416, 0), (0.008632073178887367, 0.9998769164085388, -0.013099112547934055, 0), (-0.001865455531515181, 0.01311567984521389, 0.9999122619628906, 0), (83.13015747070312, -0.4126994013786316, 0.2766847312450409, 1) ),
            102.986904: ( (0.9999547004699707, -0.008951818570494652, 0.0032345105428248644, 0), (0.008991003967821598, 0.999883770942688, -0.012310519814491272, 0), (-0.003123932983726263, 0.01233904343098402, 0.9999189972877502, 0), (85.01799774169922, -0.428873211145401, 0.28810206055641174, 1) ),
            105.38676000000001: ( (0.9999362230300903, -0.009388603270053864, 0.006281860172748566, 0), (0.009451132267713547, 0.9999053478240967, -0.009999305009841919, 0), (-0.006187386345118284, 0.01005803793668747, 0.9999302625656128, 0), (86.88695526123047, -0.44452521204948425, 0.3002259433269501, 1) ),
            107.78664: ( (0.9999179840087891, -0.009712427854537964, 0.0083450423553586, 0), (0.00978099089115858, 0.9999184012413025, -0.008214938454329967, 0), (-0.008264575153589249, 0.008295887149870396, 0.9999314546585083, 0), (88.76322174072266, -0.4627445638179779, 0.3185841739177704, 1) ),
            110.186496: ( (0.9999152421951294, -0.01019471324980259, 0.008098874241113663, 0), (0.01024885568767786, 0.9999251961708069, -0.006672143004834652, 0), (-0.008030247874557972, 0.006754581816494465, 0.9999449253082275, 0), (90.62718200683594, -0.4815730154514313, 0.3409285545349121, 1) ),
            112.58568: ( (0.9999184608459473, -0.010862037539482117, 0.006715486757457256, 0), (0.010899304412305355, 0.9999252557754517, -0.0055378759279847145, 0), (-0.006654832046478987, 0.005610618274658918, 0.9999620914459229, 0), (92.50662994384766, -0.5000575184822083, 0.36332282423973083, 1) ),
            114.985416: ( (0.9999216794967651, -0.011545034125447273, 0.004825934302061796, 0), (0.011566813103854656, 0.9999229311943054, -0.004509542137384415, 0), (-0.00477349990978837, 0.004565009381622076, 0.9999781847000122, 0), (94.36112976074219, -0.5193965435028076, 0.3819250464439392, 1) ),
            117.385104: ( (0.9999208450317383, -0.012206348590552807, 0.0030599276069551706, 0), (0.012217742390930653, 0.9999184012413025, -0.0037328717298805714, 0), (-0.0030141130555421114, 0.003769961651414633, 0.9999883770942688, 0), (96.22118377685547, -0.5404244065284729, 0.3961334824562073, 1) ),
            119.784792: ( (0.9999094605445862, -0.01311007235199213, 0.0030273611191660166, 0), (0.013112865388393402, 0.9999136328697205, -0.0009043880854733288, 0), (-0.0030152429826557636, 0.0009440035792067647, 0.9999949932098389, 0), (98.07516479492188, -0.5631663203239441, 0.4091026186943054, 1) ),
            122.184456: ( (0.9998797178268433, -0.01434540469199419, 0.005891807842999697, 0), (0.014318502508103848, 0.9998869895935059, 0.004583163186907768, 0), (-0.005956889595836401, -0.004498249851167202, 0.9999721646308899, 0), (99.92725372314453, -0.5860735177993774, 0.42113980650901794, 1) ),
            124.584816: ( (0.9998424053192139, -0.015370454639196396, 0.008883385919034481, 0), (0.015289043076336384, 0.9998411536216736, 0.009160852991044521, 0), (-0.009022781625390053, -0.009023590944707394, 0.9999185800552368, 0), (101.78337097167969, -0.613450825214386, 0.43955665826797485, 1) ),
            126.984672: ( (0.9998452663421631, -0.01598617248237133, 0.007340653799474239, 0), (0.015904244035482407, 0.9998120665550232, 0.011086810380220413, 0), (-0.0075165098533034325, -0.010968347080051899, 0.9999116063117981, 0), (103.62117767333984, -0.6456159353256226, 0.4667210280895233, 1) ),
            129.384576: ( (0.9998570084571838, -0.016661329194903374, 0.0028997024055570364, 0), (0.01662621647119522, 0.9997928738594055, 0.011739104054868221, 0), (-0.003094690851867199, -0.011689214035868645, 0.9999268651008606, 0), (105.45813751220703, -0.6787487268447876, 0.49416089057922363, 1) ),
            131.785176: ( (0.9998472332954407, -0.017477253451943398, -0.00023421422520186752, 0), (0.017478812485933304, 0.99977046251297, 0.012390434741973877, 0), (0.000017609707356314175, -0.012392635457217693, 0.9999232292175293, 0), (107.26670837402344, -0.7116000056266785, 0.5127224326133728, 1) ),
            134.18508: ( (0.9998309016227722, -0.018352597951889038, -0.0011435215128585696, 0), (0.018367061391472816, 0.9997293949127197, 0.014275317080318928, 0), (0.0008812229498289526, -0.014293906278908253, 0.9998974204063416, 0), (109.09088134765625, -0.7420106530189514, 0.5237671732902527, 1) ),
            136.584984: ( (0.9998188018798828, -0.01898270845413208, -0.001408363226801157, 0), (0.019002480432391167, 0.9996963739395142, 0.01568710245192051, 0), (0.0011101518757641315, -0.015711024403572083, 0.9998759627342224, 0), (110.90715026855469, -0.774936854839325, 0.5313730239868164, 1) ),
            138.984912: ( (0.9998036623001099, -0.019706660881638527, -0.0020779618062078953, 0), (0.019739625975489616, 0.9996561408042908, 0.01725965365767479, 0), (0.0017371171852573752, -0.017297282814979553, 0.9998489022254944, 0), (112.71810150146484, -0.8093971610069275, 0.5383264422416687, 1) ),
            141.385488: ( (0.9997823238372803, -0.02072911523282528, -0.002360280603170395, 0), (0.020767828449606895, 0.9996264576911926, 0.017767060548067093, 0), (0.0019911034032702446, -0.01781221106648445, 0.9998393654823303, 0), (114.51510620117188, -0.8462984561920166, 0.5453452467918396, 1) ),
            143.786064: ( (0.9997538924217224, -0.022117940708994865, -0.0017084939172491431, 0), (0.022144237533211708, 0.9996047616004944, 0.01731826364994049, 0), (0.0013247743481770158, -0.01735183596611023, 0.9998485445976257, 0), (116.31491088867188, -0.8850587606430054, 0.5518472790718079, 1) ),
            146.185968: ( (0.9997140765190125, -0.02390391007065773, -0.0006148327374830842, 0), (0.023910773918032646, 0.9995799660682678, 0.016376346349716187, 0), (0.00022311579959932715, -0.01638636365532875, 0.999865710735321, 0), (118.09617614746094, -0.9248207807540894, 0.5598112344741821, 1) ),
            148.586568: ( (0.9996651411056519, -0.02587159536778927, 0.0005097374669276178, 0), (0.025860855355858803, 0.9995498657226562, 0.015208257362246513, 0), (-0.0009029698558151722, -0.015189982950687408, 0.9998841881752014, 0), (119.87088775634766, -0.9653013944625854, 0.5719667077064514, 1) ),
            150.986448: ( (0.9996119141578674, -0.027810899540781975, 0.0016186321154236794, 0), (0.027782859280705452, 0.9994964003562927, 0.015332674607634544, 0), (-0.002044232562184334, -0.015281753614544868, 0.9998811483383179, 0), (121.64067840576172, -1.008307933807373, 0.5860966444015503, 1) ),
            153.38635200000002: ( (0.999553918838501, -0.0297311432659626, 0.002829149831086397, 0), (0.02968199923634529, 0.9994302988052368, 0.016063600778579712, 0), (-0.0033051271457225084, -0.015972459688782692, 0.9998669624328613, 0), (123.39624786376953, -1.0544838905334473, 0.6018975377082825, 1) ),
            155.786256: ( (0.9994917511940002, -0.03164835646748543, 0.0038280936423689127, 0), (0.0315777063369751, 0.9993517398834229, 0.017289089038968086, 0), (-0.004372783470898867, -0.017159419134259224, 0.999843180179596, 0), (125.12604522705078, -1.104819655418396, 0.6209011673927307, 1) ),
            158.18616: ( (0.9994198679924011, -0.03374837338924408, 0.004574914928525686, 0), (0.03365551680326462, 0.9992519617080688, 0.019046474248170853, 0), (-0.00521428044885397, -0.018881455063819885, 0.999808132648468, 0), (126.85494232177734, -1.158032774925232, 0.641254186630249, 1) ),
            160.586064: ( (0.9993337392807007, -0.03609829023480415, 0.005379516631364822, 0), (0.03598221391439438, 0.9991461634635925, 0.02030404843389988, 0), (-0.006107864435762167, -0.020096953958272934, 0.9997794032096863, 0), (128.56573486328125, -1.2144138813018799, 0.6633431911468506, 1) ),
            162.98594400000002: ( (0.9992428421974182, -0.03858510032296181, 0.004989126231521368, 0), (0.038480356335639954, 0.9990667700767517, 0.0196166280657053, 0), (-0.005741380155086517, -0.019409792497754097, 0.999795138835907, 0), (130.25901794433594, -1.276174545288086, 0.6856265068054199, 1) ),
            165.385824: ( (0.9991353154182434, -0.04143749922513962, 0.0033947224728763103, 0), (0.041367173194885254, 0.9989694952964783, 0.018673371523618698, 0), (-0.004165002144873142, -0.018516795709729195, 0.9998198747634888, 0), (131.94650268554688, -1.3412706851959229, 0.7092911601066589, 1) ),
            167.785704: ( (0.9989821314811707, -0.044936586171388626, 0.003920041024684906, 0), (0.04485369846224785, 0.9988099932670593, 0.019149579107761383, 0), (-0.004775892943143845, -0.018954260274767876, 0.9998089671134949, 0), (133.61801147460938, -1.4084281921386719, 0.7301976680755615, 1) ),
            170.185608: ( (0.9988049268722534, -0.048497606068849564, 0.006055999081581831, 0), (0.04837121441960335, 0.9986387491226196, 0.019514910876750946, 0), (-0.006994182243943214, -0.01919865421950817, 0.9997912049293518, 0), (135.2691650390625, -1.4851151704788208, 0.7509520649909973, 1) ),
            172.585488: ( (0.9986127018928528, -0.05213338881731033, 0.007403598632663488, 0), (0.051976729184389114, 0.9984484910964966, 0.019974587485194206, 0), (-0.008433454670011997, -0.01956206187605858, 0.9997730851173401, 0), (136.90988159179688, -1.567541241645813, 0.7748703360557556, 1) ),
            174.98604: ( (0.998386025428772, -0.05634957179427147, 0.007077708840370178, 0), (0.05619852989912033, 0.9982196688652039, 0.01998131349682808, 0), (-0.008191046305000782, -0.01955130696296692, 0.9997752904891968, 0), (138.54147338867188, -1.6558090448379517, 0.8018183708190918, 1) ),
            177.386568: ( (0.9981120228767395, -0.061179738491773605, 0.005426094401627779, 0), (0.06106303259730339, 0.997942328453064, 0.019554706290364265, 0), (-0.00661128107458353, -0.01918645389378071, 0.999794065952301, 0), (140.1431427001953, -1.7463558912277222, 0.8261436223983765, 1) ),
            179.78712000000002: ( (0.9977905750274658, -0.06636267900466919, 0.0031628080178052187, 0), (0.0662936344742775, 0.9976301789283752, 0.01841668225824833, 0), (-0.004377493169158697, -0.01816631853580475, 0.9998254179954529, 0), (141.73928833007812, -1.844213843345642, 0.8480607271194458, 1) ),
            182.187648: ( (0.9973983764648438, -0.07207763195037842, 0.0011382726952433586, 0), (0.07204993069171906, 0.9972701668739319, 0.016156816855072975, 0), (-0.0022997104097157717, -0.01603277027606964, 0.9998688101768494, 0), (143.3040008544922, -1.9477015733718872, 0.8675724864006042, 1) ),
            184.587528: ( (0.9969161748886108, -0.07847384363412857, 0.00012649327982217073, 0), (0.0784643292427063, 0.996817946434021, 0.014048357494175434, 0), (-0.0012285193661227822, -0.013995110057294369, 0.999901294708252, 0), (144.87408447265625, -2.0585577487945557, 0.8835553526878357, 1) ),
            186.988056: ( (0.9963806867599487, -0.08499642461538315, 0.0010594390332698822, 0), (0.08497688174247742, 0.9963060021400452, 0.012381809763610363, 0), (-0.0021079350262880325, -0.012246968224644661, 0.9999227523803711, 0), (146.4351043701172, -2.180903911590576, 0.895795464515686, 1) ),
            189.38726400000002: ( (0.9958409667015076, -0.09105901420116425, 0.0030095947440713644, 0), (0.09101928770542145, 0.9957837462425232, 0.011413988657295704, 0), (-0.004036251921206713, -0.011092586442828178, 0.9999303221702576, 0), (147.9842987060547, -2.312563896179199, 0.9075650572776794, 1) ),
            191.78712000000002: ( (0.9952751994132996, -0.09693308174610138, 0.005589648615568876, 0), (0.09686727076768875, 0.9952360987663269, 0.011039819568395615, 0), (-0.0066331434063613415, -0.01044620480388403, 0.9999234080314636, 0), (149.5176239013672, -2.4525489807128906, 0.9204040765762329, 1) ),
            194.187: ( (0.99465012550354, -0.10299241542816162, 0.007980022579431534, 0), (0.10290399193763733, 0.9946327209472656, 0.010796190239489079, 0), (-0.009049116633832455, -0.00991725642234087, 0.9999098777770996, 0), (151.04286193847656, -2.6004130840301514, 0.9363816380500793, 1) ),
            196.586856: ( (0.993964433670044, -0.10929647088050842, 0.009433800354599953, 0), (0.10919129103422165, 0.9939596056938171, 0.011026263236999512, 0), (-0.01058194786310196, -0.009929624386131763, 0.9998946785926819, 0), (152.538818359375, -2.7553470134735107, 0.9565362334251404, 1) ),
            198.986736: ( (0.9931738376617432, -0.11619018763303757, 0.010275715962052345, 0), (0.11606094241142273, 0.9931648373603821, 0.012390169315040112, 0), (-0.01164509542286396, -0.011112982407212257, 0.9998704195022583, 0), (154.049560546875, -2.9206955432891846, 0.9805982708930969, 1) ),
            201.38592: ( (0.9923152327537537, -0.1233140081167221, 0.010205859318375587, 0), (0.12316577881574631, 0.9922864437103271, 0.014064563438296318, 0), (-0.011861493811011314, -0.012699468061327934, 0.9998490214347839, 0), (155.5310516357422, -3.093677520751953, 1.0065133571624756, 1) ),
            203.785776: ( (0.9913784265518188, -0.13062229752540588, 0.010326670482754707, 0), (0.13041581213474274, 0.9912843108177185, 0.018632005900144577, 0), (-0.012670421972870827, -0.017124608159065247, 0.9997730851173401, 0), (157.0082244873047, -3.275602102279663, 1.0330440998077393, 1) ),
            206.18498400000001: ( (0.9903225302696228, -0.13822783529758453, 0.01242609228938818, 0), (0.1378953903913498, 0.9901435971260071, 0.02450454793870449, 0), (-0.01569082774221897, -0.022553905844688416, 0.9996224641799927, 0), (158.46665954589844, -3.4670963287353516, 1.0581434965133667, 1) ),
            208.584168: ( (0.9892677068710327, -0.14536914229393005, 0.014738131314516068, 0), (0.14490066468715668, 0.989020824432373, 0.02901100553572178, 0), (-0.01879362389445305, -0.026564085856080055, 0.9994704127311707, 0), (159.90589904785156, -3.668816328048706, 1.0844905376434326, 1) ),
            210.983352: ( (0.9882904887199402, -0.15192261338233948, 0.01419069990515709, 0), (0.151411235332489, 0.9879528284072876, 0.03199811279773712, 0), (-0.018880978226661682, -0.02947479858994484, 0.9993872046470642, 0), (161.33798217773438, -3.8820905685424805, 1.1159242391586304, 1) ),
            213.383208: ( (0.987307608127594, -0.1584092229604721, 0.01141038816422224, 0), (0.15794791281223297, 0.9868682622909546, 0.033816080540418625, 0), (-0.01661732979118824, -0.03158462792634964, 0.9993629455566406, 0), (162.74566650390625, -4.101421356201172, 1.1493377685546875, 1) ),
            215.783736: ( (0.9861843585968018, -0.16540522873401642, 0.009030920453369617, 0), (0.1650196760892868, 0.9857186675071716, 0.033573657274246216, 0), (-0.014455205760896206, -0.031619537621736526, 0.9993954300880432, 0), (164.13619995117188, -4.329155445098877, 1.1793859004974365, 1) ),
            218.184264: ( (0.9848999381065369, -0.17293891310691833, 0.00801795907318592, 0), (0.17259687185287476, 0.98445725440979, 0.03246893361210823, 0), (-0.013508480042219162, -0.030594775453209877, 0.999440610408783, 0), (165.51626586914062, -4.564134120941162, 1.2053457498550415, 1) ),
            220.584792: ( (0.9834526181221008, -0.18097487092018127, 0.008308544754981995, 0), (0.1806362420320511, 0.9830508828163147, 0.031329814344644547, 0), (-0.013837630860507488, -0.0293105635792017, 0.9994745850563049, 0), (166.87379455566406, -4.804609775543213, 1.2291390895843506, 1) ),
            222.98532: ( (0.9818466901779175, -0.18943661451339722, 0.009531292133033276, 0), (0.18906599283218384, 0.9814789891242981, 0.030870839953422546, 0), (-0.015202830545604229, -0.028508387506008148, 0.9994779229164124, 0), (168.22906494140625, -5.055291652679443, 1.2524324655532837, 1) ),
            225.385176: ( (0.9801474213600159, -0.19798436760902405, 0.010643013752996922, 0), (0.19757433235645294, 0.9797925353050232, 0.031160034239292145, 0), (-0.016597146168351173, -0.028438640758395195, 0.9994577169418335, 0), (169.55491638183594, -5.313900470733643, 1.2766321897506714, 1) ),
            227.785704: ( (0.978417694568634, -0.20635470747947693, 0.010798229835927486, 0), (0.20592477917671204, 0.9780480265617371, 0.03189133480191231, 0), (-0.01714211329817772, -0.02897942066192627, 0.9994329810142517, 0), (170.86166381835938, -5.581934452056885, 1.3021858930587769, 1) ),
            230.186208: ( (0.9766414761543274, -0.21462710201740265, 0.010324276983737946, 0), (0.2141825258731842, 0.9762235879898071, 0.03336738795042038, 0), (-0.01724034920334816, -0.030376696959137917, 0.9993898272514343, 0), (172.1557159423828, -5.857143402099609, 1.3284475803375244, 1) ),
            232.586736: ( (0.9748304486274719, -0.2227163016796112, 0.01015313807874918, 0), (0.22224503755569458, 0.974362850189209, 0.03498900309205055, 0), (-0.017685461789369583, -0.03185185790061951, 0.9993361234664917, 0), (173.4209747314453, -6.1381402015686035, 1.3531990051269531, 1) ),
            234.987264: ( (0.9728689789772034, -0.23109762370586395, 0.010945149697363377, 0), (0.23058369755744934, 0.9723969101905823, 0.03571289777755737, 0), (-0.01889619417488575, -0.03222019597887993, 0.9993021488189697, 0), (174.6759033203125, -6.430251598358154, 1.3771008253097534, 1) ),
            237.38712: ( (0.9707527756690979, -0.23975953459739685, 0.012427536770701408, 0), (0.23919132351875305, 0.970310389995575, 0.03585072234272957, 0), (-0.020654121413826942, -0.031829629093408585, 0.9992798566818237, 0), (175.92794799804688, -6.732817649841309, 1.4001116752624512, 1) ),
            239.78764800000002: ( (0.9684483408927917, -0.24881507456302643, 0.01410176232457161, 0), (0.2481708824634552, 0.9680208563804626, 0.03669862449169159, 0), (-0.022781971842050552, -0.03204107657074928, 0.9992268681526184, 0), (177.15884399414062, -7.041214942932129, 1.4235687255859375, 1) ),
            242.18750400000002: ( (0.9659436941146851, -0.25831279158592224, 0.015074467286467552, 0), (0.2576245367527008, 0.9655335545539856, 0.03707491606473923, 0), (-0.024131828919053078, -0.03192872926592827, 0.9991987943649292, 0), (178.384765625, -7.360503196716309, 1.4478883743286133, 1) ),
            244.58736000000002: ( (0.9631699323654175, -0.2684188485145569, 0.01596769317984581, 0), (0.26769375801086426, 0.9627838730812073, 0.03724620118737221, 0), (-0.025371018797159195, -0.031599972397089005, 0.9991785287857056, 0), (179.5979766845703, -7.687341690063477, 1.4746838808059692, 1) ),
            246.987192: ( (0.9601574540138245, -0.27894484996795654, 0.016953041777014732, 0), (0.2781734764575958, 0.9597918391227722, 0.03767143934965134, 0), (-0.026779646053910255, -0.031454626470804214, 0.9991463422775269, 0), (180.8004150390625, -8.024715423583984, 1.5013233423233032, 1) ),
            249.387048: ( (0.9569036364555359, -0.28983938694000244, 0.01812508888542652, 0), (0.289011150598526, 0.9565612077713013, 0.03825124725699425, 0), (-0.028424477204680443, -0.031364407390356064, 0.9991037845611572, 0), (181.99110412597656, -8.372618675231934, 1.5286312103271484, 1) ),
            251.786904: ( (0.9534136056900024, -0.30105453729629517, 0.019199136644601822, 0), (0.3001916706562042, 0.9531150460243225, 0.038166698068380356, 0), (-0.029789242893457413, -0.030625227838754654, 0.9990869164466858, 0), (183.1830596923828, -8.735746383666992, 1.5562148094177246, 1) ),
            254.18676: ( (0.9499072432518005, -0.3119700253009796, 0.01873384788632393, 0), (0.3111027777194977, 0.9495890140533447, 0.038675591349601746, 0), (-0.02985508181154728, -0.03091007098555565, 0.9990761876106262, 0), (184.35084533691406, -9.106250762939453, 1.5842702388763428, 1) ),
            256.585944: ( (0.9462156295776367, -0.32306453585624695, 0.01747196353971958, 0), (0.322207510471344, 0.9458433985710144, 0.039529941976070404, 0), (-0.02929646335542202, -0.03177425265312195, 0.999065637588501, 0), (185.53359985351562, -9.496624946594238, 1.6129785776138306, 1) ),
            258.98512800000003: ( (0.9425663948059082, -0.33363476395606995, 0.01601313427090645, 0), (0.3327646255493164, 0.942098081111908, 0.041460070759058, 0), (-0.028918463736772537, -0.0337502658367157, 0.9990118145942688, 0), (186.69395446777344, -9.895312309265137, 1.6405751705169678, 1) ),
            261.384312: ( (0.9389963746070862, -0.34359464049339294, 0.01511590275913477, 0), (0.34270304441452026, 0.9384552836418152, 0.04308488219976425, 0), (-0.028989333659410477, -0.03527628257870674, 0.9989570379257202, 0), (187.86068725585938, -10.310656547546387, 1.667303204536438, 1) ),
            263.78352: ( (0.935709536075592, -0.3524773418903351, 0.014401097781956196, 0), (0.35154858231544495, 0.9350848197937012, 0.045055679976940155, 0), (-0.029347354546189308, -0.03709634393453598, 0.9988806843757629, 0), (189.00682067871094, -10.733004570007324, 1.6916277408599854, 1) ),
            266.182704: ( (0.9325358867645264, -0.36082664132118225, 0.013452931307256222, 0), (0.35990628600120544, 0.931864321231842, 0.045786332339048386, 0), (-0.029057234525680542, -0.0378556028008461, 0.9988606572151184, 0), (190.15811157226562, -11.170524597167969, 1.7154059410095215, 1) ),
            268.58256: ( (0.9292565584182739, -0.3692183792591095, 0.012649258598685265, 0), (0.36832666397094727, 0.9285757541656494, 0.045635342597961426, 0), (-0.028595203533768654, -0.037747882306575775, 0.9988780617713928, 0), (191.29367065429688, -11.613733291625977, 1.7385581731796265, 1) ),
            270.982416: ( (0.9259107112884521, -0.377546489238739, 0.01216564979404211, 0), (0.3767002820968628, 0.9252678751945496, 0.04445459321141243, 0), (-0.028040161356329918, -0.03657817840576172, 0.9989373087882996, 0), (192.42123413085938, -12.065519332885742, 1.7602511644363403, 1) ),
            273.382944: ( (0.9224821925163269, -0.3858391046524048, 0.012441525235772133, 0), (0.3850189447402954, 0.9219072461128235, 0.042981818318367004, 0), (-0.028053998947143555, -0.03485973924398422, 0.9989984035491943, 0), (193.5562286376953, -12.531633377075195, 1.7807090282440186, 1) ),
            275.783448: ( (0.9191431403160095, -0.39371439814567566, 0.012837807647883892, 0), (0.3929014205932617, 0.918617308139801, 0.0420801155269146, 0), (-0.028360579162836075, -0.03363365679979324, 0.9990317821502686, 0), (194.67413330078125, -13.001882553100586, 1.8005188703536987, 1) ),
            278.183304: ( (0.9158134460449219, -0.40138426423072815, 0.013283790089190006, 0), (0.4005855917930603, 0.915345311164856, 0.04091707244515419, 0), (-0.028582723811268806, -0.03215111047029495, 0.9990742206573486, 0), (195.7806854248047, -13.479328155517578, 1.820092797279358, 1) ),
            280.58383200000003: ( (0.912253201007843, -0.40937283635139465, 0.014422415755689144, 0), (0.4085860550403595, 0.9118794202804565, 0.03915761783719063, 0), (-0.029181569814682007, -0.029828863218426704, 0.9991289377212524, 0), (196.9019317626953, -13.975186347961426, 1.8402258157730103, 1) ),
            282.98436: ( (0.9086218476295471, -0.41728851199150085, 0.016632553189992905, 0), (0.4164760708808899, 0.908359944820404, 0.037813231348991394, 0), (-0.03088737279176712, -0.02743086963891983, 0.9991464018821716, 0), (198.0083770751953, -14.47585391998291, 1.8609882593154907, 1) ),
            285.38556: ( (0.9049279093742371, -0.4251425564289093, 0.018954966217279434, 0), (0.4243030548095703, 0.9047767519950867, 0.036687225103378296, 0), (-0.032747313380241394, -0.025156645104289055, 0.9991469979286194, 0), (199.11058044433594, -14.985921859741211, 1.8826940059661865, 1) ),
            287.786088: ( (0.9012100100517273, -0.43288928270339966, 0.020673571154475212, 0), (0.4320322871208191, 0.9011420011520386, 0.03593380004167557, 0), (-0.03418517857789993, -0.02345225028693676, 0.9991403222084045, 0), (200.20924377441406, -15.505807876586914, 1.907202959060669, 1) ),
            290.186592: ( (0.8975726366043091, -0.4403548538684845, 0.021235262975096703, 0), (0.43950584530830383, 0.8975451588630676, 0.035316672176122665, 0), (-0.034611474722623825, -0.02236625924706459, 0.9991505146026611, 0), (201.30140686035156, -16.03435516357422, 1.9351822137832642, 1) ),
            292.58712: ( (0.8939443230628967, -0.4476933777332306, 0.020837411284446716, 0), (0.44685113430023193, 0.8939088582992554, 0.035370007157325745, 0), (-0.03446166589856148, -0.02230759523808956, 0.9991570115089417, 0), (202.3914794921875, -16.572114944458008, 1.965139627456665, 1) ),
            294.986976: ( (0.8905911445617676, -0.45439401268959045, 0.019326502457261086, 0), (0.453582227230072, 0.8905084729194641, 0.03546557202935219, 0), (-0.03332575783133507, -0.022819165140390396, 0.9991840124130249, 0), (203.4695281982422, -17.11555290222168, 1.995378017425537, 1) ),
            297.386832: ( (0.8874486088752747, -0.46058639883995056, 0.01717943139374256, 0), (0.4597978889942169, 0.8872823715209961, 0.03627581149339676, 0), (-0.03195115178823471, -0.024293851107358932, 0.9991941452026367, 0), (204.55349731445312, -17.671844482421875, 2.024653673171997, 1) ),
            299.786688: ( (0.8845056891441345, -0.46629276871681213, 0.014856578782200813, 0), (0.46554213762283325, 0.884256899356842, 0.036881204694509506, 0), (-0.03033447079360485, -0.02570527233183384, 0.9992092251777649, 0), (205.62564086914062, -18.23176383972168, 2.051997184753418, 1) ),
            302.186544: ( (0.8815961480140686, -0.4718286991119385, 0.012881441973149776, 0), (0.4711057245731354, 0.881273090839386, 0.037645235657691956, 0), (-0.029114169999957085, -0.02711937390267849, 0.9992081522941589, 0), (206.694091796875, -18.798809051513672, 2.076411485671997, 1) ),
            304.5864: ( (0.8785701990127563, -0.4774709641933441, 0.011655441485345364, 0), (0.47677895426750183, 0.8782162070274353, 0.03765815496444702, 0), (-0.02821667306125164, -0.02752826362848282, 0.9992226958274841, 0), (207.76336669921875, -19.375648498535156, 2.098503589630127, 1) ),
            306.986256: ( (0.8755091428756714, -0.48305901885032654, 0.011733844876289368, 0), (0.4823535084724426, 0.8751530051231384, 0.037977710366249084, 0), (-0.028614385053515434, -0.02758997306227684, 0.9992097020149231, 0), (208.82371520996094, -19.956167221069336, 2.117504596710205, 1) ),
            309.386112: ( (0.8723386526107788, -0.4887426793575287, 0.012485776096582413, 0), (0.48799896240234375, 0.8719947338104248, 0.03849921002984047, 0), (-0.029703738167881966, -0.02749130129814148, 0.9991806149482727, 0), (209.89613342285156, -20.551856994628906, 2.1367757320404053, 1) ),
            311.78664000000003: ( (0.8690207600593567, -0.4946008026599884, 0.013153172098100185, 0), (0.49381235241889954, 0.8686802983283997, 0.03929220139980316, 0), (-0.03085985593497753, -0.027650536969304085, 0.9991412162780762, 0), (210.95086669921875, -21.146503448486328, 2.155991554260254, 1) ),
            314.18649600000003: ( (0.8655090928077698, -0.5007052421569824, 0.01372123509645462, 0), (0.499881774187088, 0.8651772141456604, 0.039832208305597305, 0), (-0.03181549534201622, -0.027616145089268684, 0.9991121888160706, 0), (212.01080322265625, -21.75358772277832, 2.1774699687957764, 1) ),
            316.58635200000003: ( (0.8617002367973328, -0.5072041749954224, 0.014718557707965374, 0), (0.5063152313232422, 0.8613772392272949, 0.04091622307896614, 0), (-0.03343110904097557, -0.027805287390947342, 0.9990541934967041, 0), (213.06289672851562, -22.364301681518555, 2.197584867477417, 1) ),
            318.98623200000003: ( (0.8578252196311951, -0.5136976838111877, 0.01583026349544525, 0), (0.512728750705719, 0.8575096726417542, 0.04226497560739517, 0), (-0.03528602421283722, -0.028139330446720123, 0.9989809989929199, 0), (214.11131286621094, -22.983591079711914, 2.218609094619751, 1) ),
            321.38608800000003: ( (0.8539005517959595, -0.520163357257843, 0.01685153879225254, 0), (0.5191100835800171, 0.8535881042480469, 0.043727949261665344, 0), (-0.037129949778318405, -0.028591515496373177, 0.9989013671875, 0), (215.15794372558594, -23.612619400024414, 2.2399137020111084, 1) ),
            323.78594400000003: ( (0.8499758839607239, -0.5265440940856934, 0.01709591969847679, 0), (0.5254136919975281, 0.8496288061141968, 0.04551209509372711, 0), (-0.038489311933517456, -0.029701752588152885, 0.998817503452301, 0), (216.19944763183594, -24.24939727783203, 2.2642176151275635, 1) ),
            326.18580000000003: ( (0.8459750413894653, -0.5329628586769104, 0.01663639396429062, 0), (0.5318012833595276, 0.8455859422683716, 0.04660261794924736, 0), (-0.03890496492385864, -0.030577396973967552, 0.9987749457359314, 0), (217.23226928710938, -24.89234161376953, 2.288402557373047, 1) ),
            328.58565600000003: ( (0.8418095111846924, -0.5395399332046509, 0.01591859757900238, 0), (0.5383880138397217, 0.8413941860198975, 0.04684204235672951, 0), (-0.038666971027851105, -0.03086169622838497, 0.9987754821777344, 0), (218.265380859375, -25.547748565673828, 2.312953233718872, 1) ),
            330.985512: ( (0.8375436663627625, -0.546135663986206, 0.016015615314245224, 0), (0.5449556708335876, 0.8371240496635437, 0.04739859700202942, 0), (-0.03929312154650688, -0.03097059391438961, 0.9987476468086243, 0), (219.2935333251953, -26.21063995361328, 2.335562229156494, 1) ),
            333.385392: ( (0.8332425355911255, -0.552635908126831, 0.01733238808810711, 0), (0.5514339804649353, 0.8329004645347595, 0.046875521540641785, 0), (-0.040341250598430634, -0.029501011595129967, 0.9987503290176392, 0), (220.32318115234375, -26.886682510375977, 2.3577075004577637, 1) ),
            335.785248: ( (0.8289116024971008, -0.5590453147888184, 0.019336538389325142, 0), (0.5577750205993652, 0.8286563158035278, 0.04707150533795357, 0), (-0.04233844578266144, -0.028232676908373833, 0.9987043738365173, 0), (221.34371948242188, -27.56709098815918, 2.378983974456787, 1) ),
            338.185104: ( (0.8246930837631226, -0.5651819705963135, 0.02122989110648632, 0), (0.5638421177864075, 0.8245195746421814, 0.04742947593331337, 0), (-0.04431074485182762, -0.027144454419612885, 0.9986489415168762, 0), (222.37550354003906, -28.26671600341797, 2.401845932006836, 1) ),
            340.58496: ( (0.8206000924110413, -0.5710728764533997, 0.022164810448884964, 0), (0.5696942806243896, 0.8204708099365234, 0.04770851135253906, 0), (-0.04543061554431915, -0.0265224426984787, 0.9986153244972229, 0), (223.3988800048828, -28.973730087280273, 2.4275097846984863, 1) ),
            342.984816: ( (0.8167276978492737, -0.5765974521636963, 0.02216407284140587, 0), (0.5751641392707825, 0.816576361656189, 0.048880238085985184, 0), (-0.04628288000822067, -0.027173863723874092, 0.9985587000846863, 0), (224.41896057128906, -29.6890869140625, 2.4544336795806885, 1) ),
            345.38534400000003: ( (0.8129019141197205, -0.5819903016090393, 0.02185811847448349, 0), (0.5804782509803772, 0.8126947283744812, 0.050718363374471664, 0), (-0.047281574457883835, -0.02854089066386223, 0.9984737634658813, 0), (225.44358825683594, -30.418073654174805, 2.4811594486236572, 1) ),
            347.785872: ( (0.809225857257843, -0.5871080756187439, 0.0213912520557642, 0), (0.5855221748352051, 0.8089534640312195, 0.052516959607601166, 0), (-0.04813765734434128, -0.02997303009033203, 0.9983909130096436, 0), (226.4700927734375, -31.158897399902344, 2.50921368598938, 1) ),
            350.185728: ( (0.8058161735534668, -0.5917856097221375, 0.021214455366134644, 0), (0.5901511311531067, 0.8055118322372437, 0.053593967109918594, 0), (-0.0488046333193779, -0.030667150393128395, 0.99833744764328, 0), (227.4962158203125, -31.907684326171875, 2.5361130237579346, 1) ),
            352.585584: ( (0.8026262521743774, -0.5961047410964966, 0.02121902070939541, 0), (0.594368577003479, 0.8022679686546326, 0.05560646951198578, 0), (-0.050170622766017914, -0.03201929107308388, 0.9982272386550903, 0), (228.51661682128906, -32.66102981567383, 2.56282639503479, 1) ),
            354.98544: ( (0.7992926239967346, -0.6005739569664001, 0.02102978341281414, 0), (0.5986518859863281, 0.7988110780715942, 0.0593021921813488, 0), (-0.0524141751229763, -0.03481028601527214, 0.9980185627937317, 0), (229.54718017578125, -33.42900848388672, 2.5892138481140137, 1) ),
            357.38532000000004: ( (0.7960121035575867, -0.6049268245697021, 0.020694583654403687, 0), (0.6028791069984436, 0.7954328656196594, 0.06183294951915741, 0), (-0.05386556312441826, -0.036743443459272385, 0.9978719353675842, 0), (230.574951171875, -34.2038459777832, 2.6158225536346436, 1) ),
            359.78517600000004: ( (0.7932028770446777, -0.6085850596427917, 0.02129398100078106, 0), (0.606537938117981, 0.7926821708679199, 0.06137310713529587, 0), (-0.054230112582445145, -0.035765718668699265, 0.9978877305984497, 0), (231.60177612304688, -34.992000579833984, 2.639110803604126, 1) ),
            362.18503200000004: ( (0.7905769944190979, -0.6119507551193237, 0.022455116733908653, 0), (0.6099741458892822, 0.7901993989944458, 0.05929999426007271, 0), (-0.05403269827365875, -0.033184170722961426, 0.9979876279830933, 0), (232.63482666015625, -35.793251037597656, 2.662952184677124, 1) ),
            364.585536: ( (0.7879090905189514, -0.6154084801673889, 0.021718205884099007, 0), (0.6135866641998291, 0.7875813841819763, 0.05680644512176514, 0), (-0.05206402391195297, -0.03143231198191643, 0.9981489777565002, 0), (233.67054748535156, -36.60198974609375, 2.6888086795806885, 1) ),
            366.986064: ( (0.7851235866546631, -0.6190709471702576, 0.01822400838136673, 0), (0.6176031827926636, 0.7847855091094971, 0.05174987018108368, 0), (-0.046338777989149094, -0.02937483787536621, 0.9984937906265259, 0), (234.7026824951172, -37.414405822753906, 2.718594551086426, 1) ),
            369.386592: ( (0.782349705696106, -0.6226467490196228, 0.015490716323256493, 0), (0.6215351223945618, 0.7820786237716675, 0.045245181769132614, 0), (-0.040286723524332047, -0.02576952986419201, 0.9988558292388916, 0), (235.73980712890625, -38.23802185058594, 2.7442216873168945, 1) ),
            371.786448: ( (0.7795616388320923, -0.6261299252510071, 0.015651289373636246, 0), (0.6251636743545532, 0.7793939113616943, 0.04141920432448387, 0), (-0.03813232481479645, -0.022504204884171486, 0.9990192651748657, 0), (236.7816925048828, -39.07001876831055, 2.7626781463623047, 1) ),
            374.186304: ( (0.7767819762229919, -0.6295449137687683, 0.01682187058031559, 0), (0.6285004019737244, 0.7766348719596863, 0.04272640496492386, 0), (-0.03996264189481735, -0.022616548463702202, 0.9989451766014099, 0), (237.8268585205078, -39.91114807128906, 2.7793796062469482, 1) ),
            376.586184: ( (0.7742854356765747, -0.632656991481781, 0.015073972754180431, 0), (0.6315901875495911, 0.7740354537963867, 0.04430575668811798, 0), (-0.03969813510775566, -0.02478472702205181, 0.998904287815094, 0), (238.8795623779297, -40.7684440612793, 2.7980926036834717, 1) ),
            378.98604: ( (0.7724999785423279, -0.6349263191223145, 0.010601076297461987, 0), (0.6339502930641174, 0.7720637321472168, 0.04499522224068642, 0), (-0.03675335645675659, -0.028038250282406807, 0.9989309310913086, 0), (239.9275360107422, -41.63128662109375, 2.821000099182129, 1) ),
            381.385224: ( (0.7709693908691406, -0.6368033289909363, 0.009363895282149315, 0), (0.6359204649925232, 0.7705375552177429, 0.04332401230931282, 0), (-0.03480410948395729, -0.027446793392300606, 0.9990171790122986, 0), (240.9837646484375, -42.50752639770508, 2.8385889530181885, 1) ),
            383.785752: ( (0.7691172957420349, -0.6389092803001404, 0.01592150144279003, 0), (0.6379315257072449, 0.7689743041992188, 0.04149563983082771, 0), (-0.03875517472624779, -0.02175818756222725, 0.9990118145942688, 0), (242.0496826171875, -43.39336013793945, 2.845754623413086, 1) ),
            386.18628: ( (0.7671730518341064, -0.6409866809844971, 0.024116946384310722, 0), (0.6400085687637329, 0.7674301862716675, 0.03794681280851364, 0), (-0.04283147305250168, -0.01367671974003315, 0.998988687992096, 0), (243.11709594726562, -44.28463363647461, 2.857846260070801, 1) ),
            388.586808: ( (0.7654404044151306, -0.6429451704025269, 0.02687811851501465, 0), (0.6419884562492371, 0.7658355236053467, 0.03669821098446846, 0), (-0.04417915642261505, -0.01083485409617424, 0.9989648461341858, 0), (244.1943359375, -45.18621826171875, 2.8840012550354004, 1) ),
            390.98731200000003: ( (0.7643505334854126, -0.6443370580673218, 0.02445470727980137, 0), (0.6434680223464966, 0.76465904712677, 0.035290759056806564, 0), (-0.04143865779042244, -0.011238686740398407, 0.9990778565406799, 0), (245.259521484375, -46.08499526977539, 2.9219069480895996, 1) ),
            393.38716800000003: ( (0.7635528445243835, -0.6454252600669861, 0.02032887563109398, 0), (0.644594132900238, 0.7636927962303162, 0.03566110134124756, 0), (-0.03854159265756607, -0.014125262387096882, 0.9991571307182312, 0), (246.3391876220703, -46.99925231933594, 2.95992374420166, 1) ),
            395.787696: ( (0.7627833485603333, -0.6464217901229858, 0.017332252115011215, 0), (0.645607054233551, 0.7627993226051331, 0.03645215556025505, 0), (-0.036784496158361435, -0.01661527343094349, 0.9991850852966309, 0), (247.42208862304688, -47.91923522949219, 2.9885029792785645, 1) ),
            398.187552: ( (0.7618058323860168, -0.6475933790206909, 0.01657307706773281, 0), (0.6467805504798889, 0.7617901563644409, 0.03675181791186333, 0), (-0.03642544150352478, -0.017278606072068214, 0.9991869926452637, 0), (248.50267028808594, -48.84043502807617, 3.009770631790161, 1) ),
            400.587408: ( (0.7607238292694092, -0.6488412022590637, 0.017445698380470276, 0), (0.6479869484901428, 0.7607295513153076, 0.037462566047906876, 0), (-0.03757871687412262, -0.017194082960486412, 0.9991457462310791, 0), (249.59429931640625, -49.772945404052734, 3.028179883956909, 1) ),
            402.98728800000004: ( (0.7597680687904358, -0.6499298214912415, 0.018538694828748703, 0), (0.6490552425384521, 0.7598157525062561, 0.037514686584472656, 0), (-0.038467906415462494, -0.016469823196530342, 0.9991241097450256, 0), (250.6883544921875, -50.71137619018555, 3.0483760833740234, 1) ),
            405.38714400000003: ( (0.758851945400238, -0.650986909866333, 0.018967842683196068, 0), (0.6500714421272278, 0.7589031457901001, 0.03838068246841431, 0), (-0.03938007727265358, -0.016794802621006966, 0.9990831613540649, 0), (251.7785186767578, -51.64833068847656, 3.073439359664917, 1) ),
            407.78700000000003: ( (0.7579723000526428, -0.6520136594772339, 0.018871592357754707, 0), (0.6510781645774841, 0.7580115795135498, 0.03893086314201355, 0), (-0.039688341319561005, -0.017221635207533836, 0.9990636706352234, 0), (252.88214111328125, -52.60043716430664, 3.1016228199005127, 1) ),
            410.18685600000003: ( (0.757056474685669, -0.6530854105949402, 0.018573958426713943, 0), (0.6521062850952148, 0.7570634484291077, 0.04015466943383217, 0), (-0.04028609022498131, -0.018287155777215958, 0.9990208148956299, 0), (253.9856719970703, -53.5545539855957, 3.1300971508026123, 1) ),
            412.58604: ( (0.7564112544059753, -0.6538370251655579, 0.018415838479995728, 0), (0.6529161334037781, 0.7564376592636108, 0.03876308724284172, 0), (-0.03927517682313919, -0.017296835780143738, 0.9990786910057068, 0), (255.0831298828125, -54.509117126464844, 3.156256675720215, 1) ),
            414.985248: ( (0.7557443380355835, -0.6545962691307068, 0.018820609897375107, 0), (0.6536953449249268, 0.7557991147041321, 0.038080163300037384, 0), (-0.03915173187851906, -0.016475923359394073, 0.9990974068641663, 0), (256.2016906738281, -55.48197555541992, 3.1811511516571045, 1) ),
            417.384432: ( (0.7549554705619812, -0.6555448770523071, 0.017410732805728912, 0), (0.6547559499740601, 0.7549957036972046, 0.03572232648730278, 0), (-0.036562614142894745, -0.015568984672427177, 0.9992100596427917, 0), (257.30035400390625, -56.43995666503906, 3.206472158432007, 1) ),
            419.784288: ( (0.754430890083313, -0.6562472581863403, 0.013175192289054394, 0), (0.6557331085205078, 0.7544266581535339, 0.029232686385512352, 0), (-0.029123587533831596, -0.013414631597697735, 0.9994857907295227, 0), (258.41094970703125, -57.41256332397461, 3.2366414070129395, 1) ),
            422.184168: ( (0.753899335861206, -0.6569154262542725, 0.009897136129438877, 0), (0.6565625071525574, 0.7538666725158691, 0.024713268503546715, 0), (-0.023695647716522217, -0.012133228592574596, 0.9996455907821655, 0), (259.5078430175781, -58.37165832519531, 3.2624974250793457, 1) ),
            424.584024: ( (0.7527358531951904, -0.6582478880882263, 0.009920991025865078, 0), (0.6579299569129944, 0.752721905708313, 0.023192189633846283, 0), (-0.022733958438038826, -0.010930276475846767, 0.9996817708015442, 0), (260.6274719238281, -59.34821701049805, 3.284403085708618, 1) ),
            426.984552: ( (0.7512185573577881, -0.6599388718605042, 0.012301887385547161, 0), (0.6595883965492249, 0.751258373260498, 0.023538166657090187, 0), (-0.02477564662694931, -0.009568125940859318, 0.9996472597122192, 0), (261.741455078125, -60.3217887878418, 3.302934169769287, 1) ),
            429.38508: ( (0.7500297427177429, -0.6612799763679504, 0.012816404923796654, 0), (0.6608759760856628, 0.7500643134117126, 0.025426587089896202, 0), (-0.026427218690514565, -0.010600641369819641, 0.999594509601593, 0), (262.8448791503906, -61.29241180419922, 3.325413465499878, 1) ),
            431.784936: ( (0.7489741444587708, -0.6625222563743591, 0.010096164420247078, 0), (0.6620995402336121, 0.7489141225814819, 0.027420587837696075, 0), (-0.025727910920977592, -0.013852647505700588, 0.9995729923248291, 0), (263.949462890625, -62.269195556640625, 3.3499460220336914, 1) ),
            434.18544: ( (0.7479063272476196, -0.6637750864028931, 0.00622514309361577, 0), (0.6633808612823486, 0.7477313280105591, 0.02869947999715805, 0), (-0.023704733699560165, -0.01733488216996193, 0.9995687007904053, 0), (265.0535583496094, -63.24928283691406, 3.370980978012085, 1) ),
            436.58596800000004: ( (0.7465401291847229, -0.6653275489807129, 0.00413533765822649, 0), (0.6649708151817322, 0.7463181018829346, 0.028689976781606674, 0), (-0.02217450924217701, -0.018668338656425476, 0.9995797872543335, 0), (266.1523742675781, -64.22893524169922, 3.385939598083496, 1) ),
            438.98582400000004: ( (0.7448410987854004, -0.6672301888465881, 0.003946274984627962, 0), (0.666887104511261, 0.7446249127388, 0.028202056884765625, 0), (-0.021755758672952652, -0.018374331295490265, 0.9995944499969482, 0), (267.2580261230469, -65.21780395507812, 3.394580602645874, 1) ),
            441.386352: ( (0.7430410385131836, -0.6692259907722473, 0.00515886303037405, 0), (0.668865978717804, 0.7428568601608276, 0.027963770553469658, 0), (-0.022546378895640373, -0.01732764206826687, 0.9995956420898438, 0), (268.360107421875, -66.20802307128906, 3.402484655380249, 1) ),
            443.786208: ( (0.7412412166595459, -0.671187162399292, 0.00832398422062397, 0), (0.6707637310028076, 0.7411261796951294, 0.02842605486512184, 0), (-0.025248324498534203, -0.01548713631927967, 0.9995612502098083, 0), (269.46533203125, -67.2060775756836, 3.4138662815093994, 1) ),
            446.186736: ( (0.7393362522125244, -0.6732330322265625, 0.011798843741416931, 0), (0.6726762056350708, 0.739273726940155, 0.03132137656211853, 0), (-0.02980916015803814, -0.015220227651298046, 0.9994397163391113, 0), (270.5594482421875, -68.19686126708984, 3.427800416946411, 1) ),
            448.586592: ( (0.7378708124160767, -0.6748464703559875, 0.011354251764714718, 0), (0.6742899417877197, 0.7377929091453552, 0.031538594514131546, 0), (-0.029660794883966446, -0.015615349635481834, 0.9994380474090576, 0), (271.66387939453125, -69.20535278320312, 3.4484996795654297, 1) ),
            450.9858: ( (0.7369602918624878, -0.6758962273597717, 0.007335810922086239, 0), (0.6753862500190735, 0.7367551326751709, 0.03233097493648529, 0), (-0.027257081121206284, -0.018872138112783432, 0.9994502663612366, 0), (272.7561950683594, -70.20744323730469, 3.4740138053894043, 1) ),
            453.385656: ( (0.7360213994979858, -0.6769461035728455, 0.004061364568769932, 0), (0.6765362024307251, 0.7357610464096069, 0.030894020572304726, 0), (-0.02390178106725216, -0.01999099925160408, 0.9995144009590149, 0), (273.85400390625, -71.21884155273438, 3.4907355308532715, 1) ),
            455.78551200000004: ( (0.7348676323890686, -0.6782074570655823, 0.0020500621758401394, 0), (0.6778968572616577, 0.7346162796020508, 0.028191618621349335, 0), (-0.020625775679945946, -0.019327376037836075, 0.9996004104614258, 0), (274.9504089355469, -72.23230743408203, 3.499445915222168, 1) ),
            458.18472: ( (0.7336068749427795, -0.6795710921287537, 0.0020156914833933115, 0), (0.6793243288993835, 0.7334144711494446, 0.024933742359280586, 0), (-0.01842258684337139, -0.016922255977988243, 0.9996870756149292, 0), (276.0619812011719, -73.26191711425781, 3.501897096633911, 1) ),
            460.58524800000004: ( (0.7321915030479431, -0.6810874342918396, 0.003939216490834951, 0), (0.6808454394340515, 0.7320646047592163, 0.023041190579533577, 0), (-0.01857682690024376, -0.014188566245138645, 0.9997267723083496, 0), (277.1733703613281, -74.29269409179688, 3.4992318153381348, 1) ),
            462.98510400000004: ( (0.7306167483329773, -0.6827541589736938, 0.0067810555920004845, 0), (0.6824513077735901, 0.7305323481559753, 0.024139318615198135, 0), (-0.021435001865029335, -0.013008849695324898, 0.9996855854988098, 0), (278.2980041503906, -75.33784484863281, 3.49680757522583, 1) ),
            465.38496000000004: ( (0.7288303971290588, -0.6846290826797485, 0.009446281008422375, 0), (0.6842190623283386, 0.7287691831588745, 0.027198540046811104, 0), (-0.025505071505904198, -0.013359797187149525, 0.9995853900909424, 0), (279.42327880859375, -76.38890075683594, 3.497755765914917, 1) ),
            467.78481600000003: ( (0.7272597551345825, -0.686284601688385, 0.010329538956284523, 0), (0.6857569217681885, 0.7271679639816284, 0.031051240861415863, 0), (-0.028821298852562904, -0.01549876481294632, 0.9994643926620483, 0), (280.5589294433594, -77.45703125, 3.5043985843658447, 1) ),
            470.185344: ( (0.7259130477905273, -0.6877253651618958, 0.009167023934423923, 0), (0.6871277689933777, 0.7257366180419922, 0.03408408910036087, 0), (-0.03009333647787571, -0.018443169072270393, 0.9993769526481628, 0), (281.6905212402344, -78.52861785888672, 3.514500856399536, 1) ),
            472.5852: ( (0.7244346141815186, -0.6893000602722168, 0.007741823326796293, 0), (0.688677191734314, 0.7241824269294739, 0.03582669794559479, 0), (-0.030301835387945175, -0.020622482523322105, 0.9993280172348022, 0), (282.8406677246094, -79.62206268310547, 3.5243966579437256, 1) ),
            474.985728: ( (0.722973108291626, -0.690848171710968, 0.0062165274284780025, 0), (0.6903151273727417, 0.7227193713188171, 0.03378937020897865, 0), (-0.027836129069328308, -0.020137444138526917, 0.9994096159934998, 0), (283.9881591796875, -80.7204818725586, 3.5287439823150635, 1) ),
            477.385584: ( (0.7216343283653259, -0.6922563910484314, 0.0050009931437671185, 0), (0.6918548941612244, 0.7214296460151672, 0.029599666595458984, 0), (-0.02409842237830162, -0.017900174483656883, 0.9995493292808533, 0), (285.139892578125, -81.82743835449219, 3.5312113761901855, 1) ),
            479.786112: ( (0.7199457287788391, -0.6939659118652344, 0.009457298554480076, 0), (0.6935369968414307, 0.7198808789253235, 0.02789178490638733, 0), (-0.02616407535970211, -0.013521585613489151, 0.9995661973953247, 0), (286.31182861328125, -82.95294189453125, 3.5269935131073, 1) ),
            480: ( (0.7198011875152588, -0.6941088438034058, 0.009954962879419327, 0), (0.6936776638031006, 0.7197517156600952, 0.02772640436887741, 0), (-0.026410244405269623, -0.013051963411271572, 0.9995659589767456, 0), (286.41680908203125, -83.0543212890625, 3.526803731918335, 1) ),
        }
        uniform token[] xformOpOrder = ["xformOp:transform"]

        def Camera "camera_cross_left_120fov"
        {
            custom token cameraProjectionType = "fisheyePolynomial"
            float2 clippingRange = (0.001, 10000000)
            custom float fthetaCx = 961.3438
            custom float fthetaCy = 744.7865
            custom float fthetaHeight = 1080
            custom float fthetaMaxFov = 154.98
            custom float fthetaPolyA = 0
            custom float fthetaPolyB = 0.0010651813
            custom float fthetaPolyC = 4.1703903e-9
            custom float fthetaPolyD = -9.677027e-12
            custom float fthetaPolyE = 4.7017894e-14
            custom float fthetaPolyF = -1.34231826e-17
            custom float fthetaWidth = 1920
            token visibility = "invisible"
            matrix4d xformOp:transform = ( (0.9197976589202881, -0.39237362146377563, 0.003899103496223688, 0), (-0.0022354084067046642, 0.004696867894381285, 0.999986469745636, 0), (-0.39238661527633667, -0.919793963432312, 0.003443053225055337, 0), (2.5895369052886963, 0.9526238441467285, 0.9776860475540161, 1) )
            uniform token[] xformOpOrder = ["xformOp:transform"]
        }

        def Camera "camera_cross_right_120fov"
        {
            custom token cameraProjectionType = "fisheyePolynomial"
            float2 clippingRange = (0.001, 10000000)
            custom float fthetaCx = 956.7889
            custom float fthetaCy = 746.9566
            custom float fthetaHeight = 1080
            custom float fthetaMaxFov = 154.8
            custom float fthetaPolyA = 0
            custom float fthetaPolyB = 0.0010632954
            custom float fthetaPolyC = 1.0330691e-8
            custom float fthetaPolyD = -3.2769745e-11
            custom float fthetaPolyE = 7.778698e-14
            custom float fthetaPolyF = -2.75317e-17
            custom float fthetaWidth = 1920
            token visibility = "invisible"
            matrix4d xformOp:transform = ( (-0.9207792282104492, -0.3899604082107544, -0.009818561375141144, 0), (-0.0045712050050497055, -0.014381898567080498, 0.9998860955238342, 0), (-0.39005720615386963, 0.9207192659378052, 0.011459965258836746, 0), (2.5815060138702393, -0.9745199084281921, 0.9701892137527466, 1) )
            uniform token[] xformOpOrder = ["xformOp:transform"]
        }

        def Camera "camera_front_tele_30fov"
        {
            custom token cameraProjectionType = "fisheyePolynomial"
            float2 clippingRange = (0.001, 10000000)
            custom float fthetaCx = 854.78564
            custom float fthetaCy = 530.54315
            custom float fthetaHeight = 1080
            custom float fthetaMaxFov = 37.26
            custom float fthetaPolyA = 0
            custom float fthetaPolyB = 0.00027243997
            custom float fthetaPolyC = -7.2773396e-9
            custom float fthetaPolyD = 1.2117427e-11
            custom float fthetaPolyE = -9.3038895e-15
            custom float fthetaPolyF = 2.667807e-18
            custom float fthetaWidth = 1920
            token visibility = "invisible"
            matrix4d xformOp:transform = ( (0.03803856670856476, -0.9992443919181824, -0.007977988570928574, 0), (-0.016043035313487053, -0.008593413978815079, 0.999834418296814, 0), (-0.9991474747657776, -0.037904269993305206, -0.016357792541384697, 0), (1.9693577289581299, -0.11828059703111649, 1.5452367067337036, 1) )
            uniform token[] xformOpOrder = ["xformOp:transform"]
        }

        def Camera "camera_front_wide_120fov"
        {
            custom token cameraProjectionType = "fisheyePolynomial"
            float2 clippingRange = (0.001, 10000000)
            custom float fthetaCx = 958.43787
            custom float fthetaCy = 751.17896
            custom float fthetaHeight = 1080
            custom float fthetaMaxFov = 154.44
            custom float fthetaPolyA = 0
            custom float fthetaPolyB = 0.0010565135
            custom float fthetaPolyC = 3.3739887e-8
            custom float fthetaPolyD = -9.5156626e-11
            custom float fthetaPolyE = 1.6530432e-13
            custom float fthetaPolyF = -6.8753896e-17
            custom float fthetaWidth = 1920
            token visibility = "invisible"
            matrix4d xformOp:transform = ( (0.0008595552644692361, -0.9999026656150818, -0.013926033861935139, 0), (-0.01281008217483759, -0.013935906812548637, 0.9998208284378052, 0), (-0.9999176263809204, -0.0006810068152844906, -0.012820812873542309, 0), (2.0622148513793945, -0.07230755686759949, 1.5967949628829956, 1) )
            uniform token[] xformOpOrder = ["xformOp:transform"]
        }

        def Camera "camera_rear_left_70fov"
        {
            custom token cameraProjectionType = "fisheyePolynomial"
            float2 clippingRange = (0.001, 10000000)
            custom float fthetaCx = 949.87634
            custom float fthetaCy = 543.6327
            custom float fthetaHeight = 1080
            custom float fthetaMaxFov = 80.64
            custom float fthetaPolyA = 0
            custom float fthetaPolyB = 0.00063477235
            custom float fthetaPolyC = -1.215947e-10
            custom float fthetaPolyD = -1.5038935e-11
            custom float fthetaPolyE = 3.8493914e-14
            custom float fthetaPolyF = -2.4402755e-17
            custom float fthetaWidth = 1920
            token visibility = "invisible"
            matrix4d xformOp:transform = ( (0.48162344098091125, 0.8763694763183594, -0.003929425496608019, 0), (-0.01632137969136238, 0.013452437706291676, 0.999776303768158, 0), (0.8762262463569641, -0.4814515709877014, 0.02078256756067276, 0), (2.21907377243042, 1.05031418800354, 1.1458897590637207, 1) )
            uniform token[] xformOpOrder = ["xformOp:transform"]
        }

        def Camera "camera_rear_right_70fov"
        {
            custom token cameraProjectionType = "fisheyePolynomial"
            float2 clippingRange = (0.001, 10000000)
            custom float fthetaCx = 981.0265
            custom float fthetaCy = 542.3692
            custom float fthetaHeight = 1080
            custom float fthetaMaxFov = 81.36
            custom float fthetaPolyA = 0
            custom float fthetaPolyB = 0.0006360501
            custom float fthetaPolyC = 1.0486416e-9
            custom float fthetaPolyD = -2.0331768e-11
            custom float fthetaPolyE = 4.567294e-14
            custom float fthetaPolyF = -2.7727088e-17
            custom float fthetaWidth = 1920
            token visibility = "invisible"
            matrix4d xformOp:transform = ( (-0.4826899766921997, 0.875691294670105, -0.01323175523430109, 0), (-0.030729396268725395, -0.0018354495987296104, 0.9995260238647461, 0), (0.8752520084381104, 0.48286786675453186, 0.027795419096946716, 0), (2.1788058280944824, -1.041097640991211, 1.1444480419158936, 1) )
            uniform token[] xformOpOrder = ["xformOp:transform"]
        }
    }
}

